<?xml version="1.0" standalone="no"?>
<!DOCTYPE svg PUBLIC "-//W3C//DTD SVG 20010904//EN"
 "http://www.w3.org/TR/2001/REC-SVG-20010904/DTD/svg10.dtd">
<svg version="1.0" xmlns="http://www.w3.org/2000/svg"
 width="539.000000pt" height="185.000000pt" viewBox="0 0 539.000000 185.000000"
 preserveAspectRatio="xMidYMid meet">

<g transform="translate(0.000000,185.000000) scale(0.100000,-0.100000)"
fill="#000000" stroke="none">
<path d="M3492 1616 c-24 -37 -42 -76 -42 -92 0 -17 -15 -51 -35 -80 -25 -35
-40 -74 -51 -125 -8 -41 -24 -90 -34 -109 -50 -93 -61 -124 -66 -187 -12 -148
-26 -148 -35 0 -4 56 -12 122 -19 147 -6 25 -14 68 -17 95 -3 28 -12 58 -21
68 -16 18 -14 35 20 154 10 34 10 45 -1 55 -18 18 -66 -40 -80 -97 -6 -23 -17
-48 -26 -55 -8 -7 -15 -19 -15 -26 0 -18 -10 -18 -37 1 -31 21 -40 6 -73 -127
-15 -62 -33 -126 -39 -141 -7 -18 -9 -64 -5 -127 7 -96 6 -101 -19 -137 -41
-60 -48 -88 -36 -136 6 -23 12 -103 15 -176 2 -74 8 -139 14 -145 27 -27 62
71 65 184 3 100 1 94 30 129 19 22 25 40 24 68 -2 21 4 74 11 118 8 44 14 118
15 165 1 93 12 157 28 167 7 4 8 -8 4 -35 -4 -32 -1 -48 14 -66 10 -13 19 -28
19 -34 0 -5 9 -17 20 -27 11 -10 20 -31 20 -47 0 -16 6 -44 14 -63 8 -18 17
-60 21 -92 9 -89 13 -101 35 -108 11 -4 20 -15 20 -26 0 -11 7 -35 14 -54 27
-63 66 -35 66 47 1 24 7 54 15 68 8 14 15 45 15 70 0 45 7 62 44 115 15 21 19
42 18 95 -1 38 2 72 8 75 5 3 10 1 10 -6 0 -7 10 -23 22 -36 21 -23 22 -23 4
-80 -15 -46 -17 -75 -11 -157 7 -110 18 -157 46 -197 15 -22 16 -32 8 -63 -8
-30 -7 -42 5 -61 9 -14 16 -34 16 -45 0 -12 12 -33 27 -47 15 -16 26 -39 27
-57 1 -23 7 -31 28 -37 15 -4 29 -4 32 -1 9 8 -4 83 -21 121 -10 22 -13 47 -9
75 5 29 2 47 -8 61 -9 11 -16 41 -16 67 0 26 -5 50 -11 54 -7 4 -9 22 -4 53
16 105 21 207 11 226 -5 11 -11 43 -13 72 -2 29 -8 64 -13 78 -6 15 -10 50
-10 78 0 29 -7 79 -15 113 -17 75 -8 155 29 239 51 113 13 143 -52 41z m29
-37 c-36 -93 -47 -170 -31 -230 12 -41 25 -146 37 -284 3 -33 8 -64 13 -70 13
-17 8 -158 -8 -198 -13 -35 -13 -42 3 -77 11 -24 15 -49 11 -65 -5 -18 0 -37
13 -59 16 -25 19 -39 12 -63 -7 -23 -4 -41 10 -73 10 -23 19 -52 18 -64 0 -20
-1 -20 -10 3 -5 13 -21 32 -35 44 -18 13 -24 26 -20 40 3 11 -3 30 -13 44 -16
19 -17 29 -9 63 9 33 8 44 -5 58 -24 27 -38 71 -44 142 -9 120 -7 175 7 222
13 45 13 49 -8 77 -14 20 -22 45 -22 71 0 34 -3 41 -17 38 -23 -4 -41 -67 -42
-148 -1 -55 -6 -72 -31 -109 -22 -32 -30 -56 -30 -88 0 -24 -7 -58 -16 -75 -9
-16 -18 -55 -21 -85 -6 -58 -16 -54 -27 10 -5 27 -14 40 -30 47 -21 7 -24 15
-23 57 0 26 -9 76 -21 111 -12 34 -22 74 -22 88 0 23 -10 40 -60 101 -6 7 -10
34 -10 61 0 61 -21 86 -43 50 -26 -42 -37 -92 -34 -168 1 -41 -5 -115 -12
-165 -8 -49 -14 -105 -13 -124 0 -23 -8 -46 -26 -69 -24 -31 -27 -45 -28 -116
-1 -45 -9 -103 -17 -131 l-16 -50 -2 70 c-5 165 -8 203 -14 248 -6 43 -4 54
25 100 32 51 32 54 27 147 -4 79 -1 107 18 170 13 42 28 102 35 133 7 37 16
57 26 57 8 0 14 6 14 13 0 6 5 4 11 -5 16 -28 28 -21 49 26 10 24 23 47 29 50
6 4 11 17 11 29 1 22 50 112 50 90 0 -6 -9 -40 -20 -75 -23 -75 -25 -97 -6
-123 8 -11 17 -45 20 -75 3 -30 8 -68 10 -85 1 -16 4 -32 6 -35 2 -4 26 -182
33 -249 1 -13 7 -26 13 -28 22 -7 35 27 45 118 12 118 26 173 50 195 20 18 42
79 59 164 6 34 24 75 45 105 21 29 35 60 35 78 0 26 68 153 77 143 2 -2 -9
-37 -26 -77z"/>
<path d="M419 1548 c-42 -28 -68 -39 -91 -38 -50 3 -54 2 -87 -26 -17 -14 -36
-22 -42 -18 -6 3 -15 0 -20 -7 -15 -24 -10 -55 12 -75 18 -16 19 -25 13 -81
-6 -59 -5 -65 22 -101 24 -30 29 -48 31 -97 5 -121 8 -143 27 -164 10 -11 16
-27 13 -35 -3 -8 1 -36 10 -61 10 -30 14 -65 10 -98 -3 -38 0 -62 13 -88 12
-23 15 -40 9 -50 -13 -21 -11 -78 5 -107 34 -62 48 -104 44 -127 -3 -16 2 -33
13 -47 11 -11 19 -33 19 -48 0 -32 23 -66 38 -56 7 4 12 23 12 42 0 20 9 47
22 64 18 24 19 32 8 45 -8 10 -11 30 -7 60 5 35 2 52 -18 86 -22 40 -23 44 -8
80 11 28 12 42 4 58 -7 11 -9 32 -5 45 3 13 0 34 -6 46 -6 12 -9 28 -6 37 5
12 12 10 38 -12 22 -18 38 -25 54 -21 19 5 26 0 38 -22 22 -42 43 -57 60 -43
10 9 16 8 26 -4 7 -8 20 -15 30 -15 11 0 23 -15 33 -41 15 -38 19 -41 45 -36
25 5 31 2 45 -28 9 -19 30 -41 46 -49 16 -9 32 -25 36 -36 4 -11 24 -34 45
-51 26 -21 40 -42 45 -66 3 -19 17 -45 30 -57 13 -13 29 -35 34 -49 6 -15 17
-27 26 -27 27 0 20 99 -10 140 -14 18 -28 49 -31 67 -4 22 -18 43 -40 59 -18
14 -36 34 -39 44 -3 11 -14 22 -24 25 -10 3 -23 23 -30 45 -6 22 -23 47 -36
56 -14 9 -25 23 -25 31 0 21 -67 86 -81 78 -6 -4 -17 2 -25 14 -8 12 -22 21
-29 21 -8 0 -21 13 -30 30 -8 16 -21 33 -29 37 -12 7 -10 12 7 33 12 14 36 30
52 35 20 7 36 24 49 50 11 22 25 52 33 67 7 14 13 33 13 42 0 9 6 27 14 39 20
33 28 171 10 194 -7 10 -14 39 -14 65 0 53 -22 75 -66 64 -17 -5 -24 -2 -24 8
0 21 -28 46 -44 40 -8 -3 -40 9 -71 27 -31 18 -75 35 -97 39 -35 7 -46 3 -99
-32z m181 -24 c37 -19 74 -34 82 -32 7 2 15 -1 17 -7 12 -37 23 -46 59 -43
l37 3 3 -50 c2 -27 9 -57 16 -65 17 -19 7 -163 -12 -182 -6 -6 -12 -24 -12
-39 0 -15 -7 -32 -15 -39 -8 -7 -15 -20 -15 -29 0 -31 -25 -64 -56 -75 -17 -6
-45 -28 -64 -49 -26 -31 -30 -40 -20 -52 7 -8 18 -15 24 -15 7 0 20 -16 29
-36 12 -24 22 -34 32 -30 9 3 19 -3 26 -15 6 -13 18 -19 28 -16 23 6 44 -11
66 -53 10 -19 28 -42 40 -52 13 -10 26 -33 29 -52 4 -22 14 -37 26 -41 11 -4
27 -19 35 -34 8 -16 25 -35 38 -44 13 -9 27 -30 30 -47 4 -17 18 -47 32 -68
14 -20 25 -50 25 -67 -1 -28 -2 -28 -12 -10 -6 11 -17 25 -25 30 -7 6 -19 30
-26 55 -9 31 -22 51 -44 65 -17 11 -38 35 -47 53 -9 18 -27 37 -40 42 -13 5
-34 27 -47 50 -20 36 -27 41 -50 36 -22 -4 -28 0 -42 33 -18 39 -80 77 -110
65 -9 -3 -20 2 -26 14 -19 35 -41 52 -69 52 -14 0 -36 10 -49 22 -33 30 -59
14 -56 -33 7 -90 10 -120 16 -125 3 -4 -1 -24 -10 -45 -15 -37 -14 -40 11 -83
19 -33 24 -50 18 -67 -5 -13 -5 -39 1 -61 8 -31 6 -42 -7 -57 -9 -9 -17 -33
-17 -52 -1 -31 -2 -30 -9 10 -4 25 -12 47 -18 49 -7 2 -12 20 -12 41 0 21 -13
64 -30 99 -32 67 -36 92 -19 123 8 16 6 29 -9 59 -14 29 -18 53 -14 93 2 31
-1 71 -9 93 -7 22 -12 47 -10 57 1 10 -6 30 -16 45 -18 27 -23 61 -24 164 0
47 -5 63 -30 94 -28 36 -30 42 -24 99 6 53 4 62 -14 79 -23 21 -29 69 -8 60 7
-2 26 7 43 21 32 27 33 28 84 25 26 -1 49 8 85 33 66 46 100 46 185 1z"/>
<path d="M431 1376 c-19 -14 -40 -22 -52 -19 -10 3 -26 0 -34 -7 -17 -14 -20
-56 -5 -65 6 -3 10 -24 10 -46 0 -24 7 -47 16 -56 10 -11 14 -26 10 -44 -3
-18 1 -32 13 -43 11 -10 17 -25 14 -37 -3 -11 2 -27 10 -37 11 -12 13 -22 7
-32 -22 -34 -3 -67 28 -51 16 9 26 8 41 -1 16 -10 25 -8 58 15 22 15 46 27 54
27 23 0 48 32 55 71 4 19 18 47 31 62 25 31 28 49 14 76 -6 10 -6 23 -1 31 6
10 3 21 -10 35 -10 11 -25 38 -32 60 -12 35 -17 40 -41 38 -19 -1 -32 5 -43
23 -23 34 -96 34 -143 0z m135 -23 c11 -18 23 -23 42 -21 22 2 28 -1 30 -22 2
-14 11 -33 20 -44 10 -10 18 -35 19 -55 1 -20 3 -44 3 -53 1 -9 -10 -34 -24
-55 -14 -21 -26 -47 -26 -58 0 -25 -18 -45 -41 -45 -10 0 -31 -12 -48 -26 -26
-21 -34 -24 -46 -14 -8 7 -26 10 -40 6 -23 -6 -24 -5 -13 19 9 21 8 28 -7 45
-9 10 -15 26 -12 33 3 8 -2 25 -11 38 -9 13 -15 35 -14 50 2 14 -4 31 -12 39
-10 7 -16 28 -16 51 0 21 -4 41 -10 44 -5 3 -10 18 -10 32 0 23 3 25 30 20 23
-5 36 -1 57 18 39 34 106 32 129 -2z"/>
<path d="M942 1354 c-16 -11 -21 -22 -17 -35 4 -10 1 -35 -6 -54 -11 -30 -11
-37 7 -56 49 -55 78 -45 92 31 10 52 6 70 -13 70 -8 0 -15 12 -17 27 -4 33
-17 38 -46 17z m31 -35 c-4 -14 0 -22 13 -25 16 -4 19 -12 16 -44 -5 -52 -22
-66 -53 -42 -21 18 -22 22 -10 50 7 18 11 43 7 56 -4 15 -1 26 7 29 19 7 26
-1 20 -24z"/>
<path d="M4690 1286 c0 -36 -5 -68 -11 -71 -6 -5 -8 -22 -3 -49 4 -22 6 -59 5
-81 -1 -22 5 -62 14 -90 8 -27 15 -63 15 -79 0 -16 7 -38 17 -48 15 -17 15
-22 0 -76 -9 -31 -18 -68 -19 -81 -2 -18 -14 -27 -48 -40 -28 -10 -46 -24 -48
-35 -2 -10 -22 -36 -44 -57 -35 -33 -38 -40 -28 -60 11 -20 6 -28 -59 -90 -39
-38 -71 -73 -71 -78 0 -5 -24 -23 -53 -39 -84 -48 -142 -126 -102 -139 6 -2
34 17 64 41 35 29 69 47 94 52 29 4 57 22 103 63 34 31 65 64 69 73 3 10 23
40 44 66 21 26 42 58 46 71 3 12 30 38 60 57 29 19 67 53 85 76 18 22 51 48
75 58 23 10 52 31 63 46 30 40 28 39 113 95 94 62 169 136 147 144 -18 7 -90
-26 -143 -65 -40 -31 -138 -80 -158 -80 -6 0 -19 -8 -30 -17 -19 -17 -20 -17
-14 0 4 10 -4 39 -18 69 -18 37 -25 68 -25 109 0 45 -6 66 -24 94 -14 19 -29
58 -35 85 -14 66 -50 140 -67 140 -11 0 -14 -16 -14 -64z m104 -185 c11 -12
16 -37 16 -79 0 -46 6 -73 25 -107 19 -36 22 -52 15 -71 -20 -51 -3 -59 39
-20 15 13 49 32 76 42 28 10 74 34 104 54 29 19 65 43 80 52 43 29 49 20 8
-13 -56 -46 -98 -76 -138 -98 -20 -11 -48 -36 -63 -56 -16 -20 -47 -45 -71
-55 -24 -10 -58 -38 -79 -63 -21 -25 -59 -60 -86 -77 -26 -17 -55 -45 -64 -63
-58 -113 -189 -252 -248 -261 -23 -4 -58 -23 -93 -51 -30 -25 -55 -41 -55 -36
0 12 99 101 113 101 15 0 197 188 197 203 0 7 -5 18 -11 24 -8 8 2 22 35 49
26 21 44 44 42 50 -3 7 16 21 43 32 45 18 49 23 54 63 4 24 13 67 21 94 13 47
13 51 -5 64 -12 9 -19 25 -19 48 0 19 -4 42 -9 52 -5 9 -12 55 -15 101 -2 47
-7 92 -11 101 -3 10 -2 20 4 24 6 3 11 32 12 63 l1 57 33 -103 c19 -57 41
-112 49 -121z"/>
<path d="M1530 1327 c-23 -12 -25 -19 -31 -102 -3 -51 -17 -130 -32 -182 -15
-51 -27 -99 -27 -108 0 -27 29 -29 50 -4 l20 24 -4 -25 c-3 -14 -8 -38 -11
-55 -4 -16 -9 -59 -10 -95 -2 -36 -11 -91 -19 -123 -20 -73 -20 -91 -1 -107
12 -10 19 -10 27 -2 15 15 46 104 53 156 7 46 11 54 36 74 15 11 21 6 48 -34
17 -26 31 -58 31 -70 0 -12 11 -35 24 -51 13 -15 29 -45 35 -65 7 -21 16 -40
21 -43 5 -3 17 -33 26 -65 18 -65 28 -71 62 -40 27 25 27 32 3 101 -10 31 -22
75 -26 100 -7 44 -41 143 -58 167 -5 6 -18 12 -28 12 -19 0 -99 107 -99 133 0
8 21 25 48 38 35 18 52 34 66 66 11 23 30 47 43 54 35 19 127 129 116 140 -12
12 -70 -18 -131 -70 -28 -22 -54 -41 -60 -41 -5 0 -26 -13 -47 -30 -37 -29
-75 -40 -75 -20 0 5 5 20 11 33 7 16 8 40 1 75 -6 34 -6 68 1 97 8 33 7 48 -3
60 -15 18 -27 19 -60 2z m42 -63 c-8 -26 -8 -52 -1 -92 8 -39 7 -63 0 -79 -9
-20 -5 -83 6 -83 2 0 29 16 59 35 30 19 59 35 64 35 6 0 29 17 53 38 47 42
101 82 113 82 4 0 -4 -10 -18 -23 -14 -13 -29 -30 -34 -38 -5 -8 -24 -26 -43
-38 -18 -13 -39 -38 -46 -55 -16 -37 -39 -58 -83 -76 -37 -14 -50 -47 -32 -81
32 -58 83 -119 101 -119 11 0 22 -8 25 -17 3 -10 13 -36 24 -58 10 -22 23 -69
30 -105 7 -36 18 -80 26 -99 16 -37 19 -64 5 -42 -8 12 -12 12 -25 2 -14 -12
-16 -10 -16 14 0 15 -8 39 -19 53 -10 15 -21 39 -25 54 -3 14 -17 40 -31 56
-14 17 -25 37 -25 46 0 20 -31 81 -59 116 -16 20 -22 23 -32 13 -7 -7 -21 -13
-31 -13 -10 0 -18 -3 -18 -7 0 -25 -33 -160 -41 -167 -5 -6 -9 -18 -9 -28 0
-10 -4 -18 -10 -18 -14 0 -12 27 6 85 8 28 17 82 19 120 2 39 8 94 14 124 6
29 8 57 5 62 -9 16 -31 10 -48 -13 l-17 -23 5 25 c2 14 16 69 30 123 15 54 27
128 28 163 1 57 4 67 22 74 31 12 41 -4 28 -46z"/>
<path d="M4416 1232 c-13 -26 -31 -79 -40 -117 -9 -39 -21 -86 -26 -106 -6
-20 -10 -45 -10 -55 0 -14 -13 -23 -47 -34 -50 -16 -66 -36 -36 -46 10 -3 35
-13 55 -21 34 -14 36 -18 31 -47 -3 -17 -10 -36 -15 -43 -5 -7 -6 -22 -2 -35
10 -30 10 -115 0 -204 -8 -70 2 -114 24 -114 20 0 54 174 74 380 3 25 5 47 5
49 1 2 7 -2 15 -8 7 -6 26 -12 42 -12 16 -1 43 -8 61 -15 38 -17 54 -12 70 23
14 29 3 53 -26 53 -9 0 -25 7 -35 15 -11 8 -30 15 -42 15 -13 0 -26 4 -29 10
-3 5 -20 7 -37 3 -28 -5 -31 -4 -24 13 4 10 16 52 27 93 11 41 22 78 24 81 2
4 -2 18 -10 33 -12 24 -11 31 7 65 24 43 19 72 -12 72 -14 0 -27 -15 -44 -48z
m54 19 c0 -6 -10 -26 -21 -46 -19 -31 -20 -40 -9 -59 10 -20 8 -38 -10 -107
-33 -124 -32 -134 8 -134 20 0 32 -5 32 -13 0 -9 9 -11 33 -7 24 5 37 2 46 -9
8 -9 24 -16 37 -16 13 0 24 -4 24 -10 0 -5 -6 -10 -14 -10 -8 0 -16 -6 -19
-12 -3 -10 -9 -10 -26 0 -11 6 -36 12 -55 12 -19 0 -38 5 -41 10 -3 6 -15 10
-25 10 -19 0 -27 -19 -29 -65 -2 -71 -7 -122 -14 -132 -4 -7 -12 -51 -18 -99
-5 -48 -14 -94 -20 -103 -7 -11 -8 -2 -3 34 10 67 12 205 3 231 -4 11 -3 27 2
36 4 8 10 34 11 58 3 36 0 43 -17 46 -11 2 -36 7 -55 12 l-35 9 28 12 c16 6
37 11 47 11 23 0 33 14 36 54 7 73 39 194 66 251 20 42 38 58 38 36z"/>
<path d="M3995 1178 c-2 -7 -9 -58 -14 -113 -6 -55 -13 -110 -17 -122 -4 -14
1 -28 16 -43 19 -19 20 -25 10 -49 -6 -16 -8 -40 -4 -55 3 -15 7 -61 8 -104 1
-70 3 -77 21 -77 14 0 21 8 23 25 1 14 10 49 18 78 16 51 17 52 35 36 36 -32
77 -109 82 -155 12 -90 41 -129 74 -97 13 13 13 19 -1 53 -9 21 -16 61 -16 89
0 33 -7 62 -20 84 -11 18 -20 46 -20 61 0 19 -11 40 -30 60 l-31 30 53 30 c94
52 107 82 67 147 -12 20 -18 42 -14 53 4 14 -1 25 -19 36 -14 9 -29 14 -35 11
-5 -3 -22 -1 -38 5 -26 10 -31 8 -65 -31 l-38 -43 0 29 c0 45 -11 74 -26 74
-8 0 -17 -6 -19 -12z m41 -127 c4 -3 11 3 18 13 28 47 69 87 79 77 6 -6 26
-11 45 -11 30 0 34 -2 29 -22 -4 -15 2 -33 18 -54 25 -33 31 -60 17 -80 -4 -6
-33 -25 -65 -43 -32 -18 -61 -40 -64 -48 -3 -8 8 -27 26 -45 20 -20 31 -40 31
-59 0 -15 9 -43 20 -62 13 -23 20 -49 19 -80 -1 -25 3 -59 10 -76 7 -16 11
-36 8 -43 -7 -18 -27 36 -34 91 -6 46 -46 123 -83 156 -13 12 -20 31 -20 54 0
20 -5 43 -10 51 -17 27 -35 -7 -42 -83 -4 -40 -11 -92 -17 -117 -9 -42 -9 -40
-8 35 0 44 -2 86 -7 93 -4 7 -2 28 5 47 11 30 10 37 -5 54 -16 18 -16 28 -4
143 12 120 13 122 20 69 5 -30 11 -57 14 -60z"/>
<path d="M4082 1033 c-18 -21 -32 -40 -32 -43 1 -10 49 -60 59 -60 18 0 49 50
44 71 -4 12 1 25 12 33 24 17 11 36 -24 36 -19 0 -36 -11 -59 -37z m54 1 c-3
-9 -6 -25 -6 -37 0 -12 -5 -29 -10 -37 -9 -13 -13 -12 -28 8 -18 23 -18 25 7
53 28 32 47 38 37 13z"/>
<path d="M954 1120 c-16 -6 -22 -20 -27 -61 -4 -32 -2 -58 4 -65 8 -9 7 -23
-2 -48 -10 -27 -10 -41 -1 -58 6 -13 14 -54 16 -93 11 -147 18 -194 31 -205
27 -22 42 36 49 195 1 33 8 71 15 83 11 21 10 27 -7 45 -18 19 -20 33 -18 107
4 105 -6 122 -60 100z m39 -136 c-5 -56 -3 -63 17 -77 20 -14 21 -18 9 -33 -8
-10 -15 -43 -16 -78 -1 -34 -5 -90 -9 -126 l-8 -65 -8 60 c-5 33 -11 92 -13
130 -3 39 -11 80 -17 92 -9 17 -8 32 2 63 10 30 10 43 1 53 -15 18 -4 78 18
95 14 11 17 9 23 -20 4 -18 5 -60 1 -94z"/>
<path d="M2602 1107 c-10 -12 -49 -143 -59 -199 -3 -15 -17 -35 -32 -44 -14
-10 -32 -26 -39 -36 -24 -33 -30 -18 -16 45 18 85 18 126 -2 134 -19 7 -28 -6
-51 -69 -16 -43 -33 -63 -33 -39 0 5 -9 11 -20 14 -11 3 -20 14 -20 24 0 10
-7 29 -16 41 -26 38 -44 11 -44 -67 0 -69 -14 -112 -24 -78 -4 9 -9 25 -12 35
-3 9 -12 57 -19 106 -8 49 -19 94 -24 99 -15 15 -38 -8 -46 -44 -4 -16 -15
-34 -26 -39 -27 -15 -51 -77 -43 -114 3 -20 -2 -52 -16 -89 -17 -45 -20 -65
-13 -99 14 -72 45 -49 76 57 8 28 20 50 28 50 7 0 25 -31 40 -70 20 -52 31
-70 45 -70 17 0 19 7 18 57 -1 32 3 55 7 52 5 -3 9 -16 9 -28 0 -13 7 -29 15
-36 23 -19 42 13 40 66 -2 52 7 48 46 -22 33 -57 38 -61 57 -42 9 9 12 9 12 0
0 -28 100 -56 115 -32 9 14 25 12 25 -3 0 -21 35 -48 54 -41 20 8 21 48 1 104
-19 53 -19 131 -1 190 9 32 10 51 3 67 -7 16 -7 35 1 62 18 57 -6 95 -36 58z
m22 -29 c-5 -13 -9 -52 -11 -88 -1 -36 -5 -101 -9 -145 -5 -63 -3 -89 10 -119
18 -43 21 -86 6 -86 -5 0 -15 18 -21 40 -13 44 -34 52 -44 19 -6 -18 -13 -20
-43 -16 -49 9 -56 18 -47 74 6 39 15 55 50 88 23 22 45 51 48 65 11 47 46 171
52 180 11 18 16 10 9 -12z m-436 -35 c-4 -15 13 -128 27 -178 17 -66 29 -205
15 -185 -5 8 -16 38 -25 66 -8 28 -24 59 -36 70 -21 19 -21 19 -40 -5 -10 -13
-19 -30 -19 -37 0 -8 -4 -22 -9 -32 -6 -9 -13 -30 -17 -47 l-7 -30 -9 35 c-8
27 -6 42 8 70 9 19 18 58 19 85 3 76 13 110 37 120 13 6 26 24 30 43 5 17 13
32 18 32 6 0 9 -3 8 -7z m253 -133 c-6 -28 -14 -81 -17 -118 -7 -68 -13 -87
-21 -64 -12 33 -86 131 -95 126 -6 -4 -8 -26 -5 -53 3 -25 2 -55 -3 -66 -8
-18 -9 -17 -9 7 -1 15 -6 30 -12 34 -6 4 -8 17 -4 33 4 14 10 60 14 101 l7 75
12 -44 c8 -26 20 -45 32 -48 10 -3 21 -14 23 -25 9 -35 29 -15 56 57 27 75 39
67 22 -15z"/>
<path d="M2524 802 c-27 -21 -34 -42 -22 -64 19 -39 72 -1 66 48 -4 34 -17 39
-44 16z m12 -50 c-15 -15 -16 -15 -16 4 0 28 24 52 28 28 2 -9 -3 -24 -12 -32z"/>
<path d="M2134 925 c-7 -19 -14 -39 -14 -45 0 -12 50 -34 58 -25 7 6 5 60 -3
85 -9 30 -24 24 -41 -15z m26 -26 c0 -11 -4 -18 -10 -14 -5 3 -7 12 -3 20 7
21 13 19 13 -6z"/>
<path d="M3709 1058 c-32 -35 -61 -72 -64 -83 -4 -11 -14 -34 -23 -52 -15 -30
-15 -35 1 -69 13 -27 16 -48 11 -80 -7 -47 6 -74 34 -74 8 0 30 -11 48 -25 61
-46 125 -29 187 51 42 53 46 83 17 128 -17 29 -18 36 -5 72 30 88 -30 194
-111 194 -31 0 -44 -9 -95 -62z m150 17 c37 -32 50 -97 31 -155 -11 -35 -11
-42 10 -74 27 -44 22 -67 -22 -119 -35 -41 -114 -70 -128 -47 -10 16 -59 40
-82 40 -18 0 -19 5 -13 49 5 37 2 59 -10 85 -15 32 -16 39 -3 59 8 12 18 33
21 47 4 14 31 51 61 83 62 65 88 71 135 32z"/>
<path d="M3741 994 c-11 -14 -18 -31 -15 -39 3 -7 -4 -27 -16 -43 -28 -38 -21
-101 11 -109 11 -3 25 -16 30 -29 10 -28 49 -33 69 -9 9 11 9 22 1 46 -7 21
-7 37 -1 49 15 28 12 38 -15 62 -21 18 -24 27 -19 60 5 30 3 38 -9 38 -9 0
-25 -12 -36 -26z m23 -31 c-6 -21 -2 -31 20 -48 24 -19 26 -24 15 -48 -8 -18
-9 -34 -1 -55 14 -40 -11 -52 -34 -17 -9 14 -22 25 -29 25 -25 0 -28 57 -6 89
12 16 21 38 21 48 0 18 8 33 17 33 2 0 0 -12 -3 -27z"/>
<path d="M1243 1095 c-13 -9 -23 -22 -23 -30 0 -7 -17 -22 -37 -32 -30 -14
-39 -25 -45 -53 -14 -74 -26 -108 -48 -138 -20 -27 -21 -34 -10 -47 8 -9 14
-31 14 -48 1 -27 5 -32 29 -35 21 -3 27 -9 27 -27 0 -13 4 -26 9 -29 4 -3 11
-19 14 -36 9 -42 31 -37 59 13 16 29 31 43 48 45 14 2 29 8 35 13 5 5 24 9 41
9 23 0 39 8 54 27 28 36 21 48 -31 50 -24 1 -64 4 -88 7 -24 3 -52 1 -63 -5
-32 -17 -41 0 -18 37 24 42 25 52 5 74 -14 15 -10 21 35 64 27 26 50 54 50 62
0 9 11 14 30 14 37 0 77 18 85 38 9 23 -4 29 -80 36 -55 5 -75 3 -92 -9z m130
-15 c44 0 22 -18 -31 -26 -52 -7 -75 -21 -68 -40 3 -7 -11 -24 -30 -39 -19
-14 -42 -37 -51 -51 -14 -23 -14 -26 1 -43 16 -17 16 -21 -5 -60 -20 -40 -21
-43 -4 -61 15 -16 21 -17 39 -7 29 16 84 17 114 1 17 -9 31 -10 43 -3 28 15
34 11 14 -11 -10 -11 -27 -19 -39 -19 -11 1 -37 -5 -56 -11 -19 -7 -40 -14
-47 -16 -7 -2 -22 -22 -35 -46 -21 -40 -23 -41 -26 -18 -2 14 -8 29 -13 34 -5
6 -9 20 -9 33 0 23 -26 43 -47 36 -15 -6 -18 33 -3 42 6 3 10 15 10 26 0 16
-4 19 -21 14 l-21 -7 22 29 c19 27 27 48 49 138 5 21 17 35 44 48 20 9 37 24
37 32 0 22 32 36 70 30 19 -2 48 -5 63 -5z"/>
</g>
</svg>
